<svg width="22" height="21" viewBox="0 0 22 21" fill="none" xmlns="http://www.w3.org/2000/svg">
<path fill-rule="evenodd" clip-rule="evenodd" d="M11 0.894775C5.41696 0.894775 0.894714 5.42322 0.894714 11C0.894714 15.4665 3.79168 19.2505 7.80525 20.5904C8.30772 20.6835 8.49382 20.3733 8.49382 20.1004C8.49382 19.8584 8.48762 19.2257 8.48142 18.382C5.6713 18.99 5.07577 17.0297 5.07577 17.0297C4.61673 15.8635 3.95297 15.5533 3.95297 15.5533C3.03487 14.9268 4.0212 14.9392 4.0212 14.9392C5.03235 15.0136 5.57204 15.9813 5.57204 15.9813C6.47153 17.526 7.93552 17.0793 8.51243 16.8188C8.60548 16.1674 8.86602 15.7208 9.15138 15.4665C6.90576 15.2121 4.54849 14.3436 4.54849 10.4728C4.54849 9.36856 4.9393 8.46907 5.59065 7.76189C5.4852 7.50755 5.13781 6.47779 5.68991 5.08824C5.68991 5.08824 6.53977 4.8153 8.46901 6.1242C9.27544 5.90088 10.1377 5.78922 11 5.78302C11.856 5.78922 12.7245 5.90088 13.5309 6.1242C15.4602 4.8153 16.31 5.08824 16.31 5.08824C16.8621 6.47779 16.5148 7.50755 16.4093 7.76189C17.0544 8.46907 17.4453 9.36856 17.4453 10.4728C17.4453 14.3561 15.0818 15.2059 12.83 15.4602C13.1898 15.7704 13.5185 16.3908 13.5185 17.3337C13.5185 18.686 13.5061 19.7716 13.5061 20.1066C13.5061 20.3795 13.686 20.6897 14.2009 20.5904C18.2145 19.2505 21.1052 15.4665 21.1052 11.0062C21.1052 5.42322 16.583 0.894775 11 0.894775Z" fill="#191717"/>
</svg>
